<?xml version="1.0" encoding="utf-8"?>
<!-- Generator: Adobe Illustrator 22.0.1, SVG Export Plug-In . SVG Version: 6.00 Build 0)  -->
<svg version="1.1" id="Layer_1" xmlns="http://www.w3.org/2000/svg" xmlns:xlink="http://www.w3.org/1999/xlink" x="0px" y="0px"
	 viewBox="0 0 235 96" style="enable-background:new 0 0 235 96;" xml:space="preserve">
<style type="text/css">
	.st0{enable-background:new    ;}
	.st1{fill:#EAEA21;}
</style>
<g>
	<g transform="translate(0.000000,96.000000) scale(0.100000,-0.100000)">
		<g>
			<path d="M0,480V0h1175h1175v480v480H1175H0V480z M489,575c32-16,41-33,41-78c-1-56-43-87-116-87h-34v-55c0-52-1-55-25-55h-25v145
				v145h65C433,590,473,584,489,575z M785,570c88-55,84-205-8-254c-49-27-128-18-167,19c-71,68-51,210,35,245
				C683,596,751,591,785,570z M956,482c12-57,24-105,26-107c2-3,17,45,33,105c28,106,30,110,57,110c23,0,29-6,37-37
				c5-21,18-68,27-105c10-38,21-68,24-68s14,39,24,88c24,123,24,122,52,122c13,0,24-3,24-6c0-7-46-195-60-246c-9-33-15-38-40-38
				c-26,0-30,5-41,43c-35,135-47,171-52,157c-4-8-17-55-30-105c-23-87-25-90-54-93l-30-3l-32,128c-18,70-34,136-37,146
				c-5,15-1,18,22,15C933,585,935,581,956,482z M1470,570c0-18-7-20-60-20h-60v-39v-40l52-3c40-2,54-7,56-20c3-14-6-17-50-20l-53-3
				l-3-42l-3-43h60c54,0,61-2,61-20s-7-20-85-20h-85v138c0,76,3,142,7,145c3,4,42,7,85,7C1463,590,1470,588,1470,570z M1691,561
				c36-37,39-82,6-115c-13-13-29-25-37-28c-10-3-6-15,17-49c47-70,47-69,16-69c-24,0-34,9-61,55c-22,37-40,55-53,55
				c-16,0-19-7-19-55c0-52-1-55-25-55h-25v138c0,76,3,142,7,145c3,4,37,7,75,7C1655,590,1664,587,1691,561z M1945,548l27-41l19,24
				c10,13,21,32,25,42c4,12,16,17,45,17c21,0,39-3,39-6c0-4-18-35-40-70s-40-66-40-69s17-32,38-63c59-87,58-82,13-82
				c-36,0-44,4-67,40c-15,22-30,40-35,40s-18-18-29-40c-19-37-24-40-61-40c-45,0-46-2,17,96l32,52l-44,66c-24,36-44,68-44,71
				s17,5,39,5C1913,590,1920,585,1945,548z"/>
		</g>
		<g>
			<path d="M380,500c0-49,1-50,31-50c45,0,69,16,69,48c0,38-17,52-62,52h-38V500z"/>
		</g>
		<g>
			<path d="M659,535c-25-14-49-59-49-92c0-31,33-82,60-93c36-15,82-5,106,22c28,30,26,120-2,148C747,547,692,554,659,535z"/>
		</g>
		<g>
			<path d="M1560,500v-50h39c43,0,71,20,71,50s-28,50-71,50h-39V500z"/>
		</g>
	</g>
	<g>
		<g class="st0">
			<path class="st1" d="M177.9,33.8h12.7l27,34.3h-12.8L177.9,33.8z M195.7,59.1l-6.4,9h-11.4l11.8-16.6L195.7,59.1z M199.3,42.3
				l5.4-8.5h11.6L205.5,50L199.3,42.3z"/>
		</g>
	</g>
</g>
</svg>
